<?xml version="1.0" encoding="utf-8"?>
<!-- Generator: Adobe Illustrator 24.2.0, SVG Export Plug-In . SVG Version: 6.00 Build 0)  -->
<svg version="1.1" xmlns="http://www.w3.org/2000/svg" xmlns:xlink="http://www.w3.org/1999/xlink" x="0px" y="0px"
	 viewBox="0 0 65.7 73" style="enable-background:new 0 0 65.7 73;" xml:space="preserve">
<g id="레이어_2">
	<g>
		<polygon style="fill-rule:evenodd;clip-rule:evenodd;fill:#000000;" points="14.6,32.9 7.3,32.9 7.3,29.2 11,29.2 11,25.6 
			14.6,25.6 14.6,32.9 		"/>
		<polygon style="fill-rule:evenodd;clip-rule:evenodd;fill:#000000;" points="14.6,21.9 21.9,21.9 21.9,25.6 14.6,25.6 14.6,21.9 
					"/>
		<polygon style="fill-rule:evenodd;clip-rule:evenodd;fill:#000000;" points="25.6,21.9 21.9,21.9 21.9,14.6 25.6,14.6 25.6,21.9 
					"/>
		<path style="fill-rule:evenodd;clip-rule:evenodd;fill:#000000;" d="M29.2,14.6h-3.7c0-3.7,0-7.3,0-11h3.7
			C29.2,7.3,29.2,11,29.2,14.6L29.2,14.6z"/>
		<polygon style="fill-rule:evenodd;clip-rule:evenodd;fill:#000000;" points="29.2,0 36.5,0 36.5,3.7 29.2,3.7 29.2,0 		"/>
		<path style="fill-rule:evenodd;clip-rule:evenodd;fill:#000000;" d="M36.5,3.7h3.7c0,4.9,0,9.7,0,14.6h-3.7
			C36.5,13.4,36.5,8.5,36.5,3.7L36.5,3.7z"/>
		<polygon style="fill-rule:evenodd;clip-rule:evenodd;fill:#000000;" points="32.9,18.3 36.5,18.3 36.5,25.6 32.9,25.6 32.9,18.3 
					"/>
		<path style="fill-rule:evenodd;clip-rule:evenodd;fill:#000000;" d="M65.7,47.5c0,3.7,0,7.3,0,11h-3.7v-7.3c-7.3,0-14.6,0-21.9,0
			v-3.7C48.7,47.5,57.2,47.5,65.7,47.5L65.7,47.5z"/>
		<path style="fill-rule:evenodd;clip-rule:evenodd;fill:#000000;" d="M65.7,36.5c0,3.7,0,7.3,0,11h-3.7v-7.3c-7.3,0-14.6,0-21.9,0
			v-3.7C48.7,36.5,57.2,36.5,65.7,36.5L65.7,36.5z"/>
		<path style="fill-rule:evenodd;clip-rule:evenodd;fill:#000000;" d="M25.6,65.7v3.7c-3.7,0-7.3,0-11,0v-3.7
			C18.3,65.7,21.9,65.7,25.6,65.7L25.6,65.7z"/>
		<polygon style="fill-rule:evenodd;clip-rule:evenodd;fill:#000000;" points="14.6,62.1 14.6,65.7 7.3,65.7 7.3,62.1 14.6,62.1 		
			"/>
		<path style="fill-rule:evenodd;clip-rule:evenodd;fill:#000000;" d="M7.3,32.9H3.7H0c0,9.7,0,19.5,0,29.2h3.7h3.7H11
			c0-9.7,0-19.5,0-29.2H7.3z"/>
		<g>
			<path style="fill-rule:evenodd;clip-rule:evenodd;fill:#000000;" d="M36.5,25.6v3.7h3.2h0.4h3.7c1.4,0,2.9,0,4.3,0
				c4.7,0,9.3,0,14,0v-3.7C53.6,25.6,45,25.6,36.5,25.6z"/>
			<path style="fill-rule:evenodd;clip-rule:evenodd;fill:#000000;" d="M62.1,29.2v7.3c-4.7,0-9.3,0-14,0c-1.4,0-2.9,0-4.3,0h-3.7
				h-0.4h-3.2v3.7h3.7h3.7c7.3,0,14.6,0,21.9,0v-3.7v-7.3H62.1z"/>
		</g>
		<path style="fill-rule:evenodd;clip-rule:evenodd;fill:#000000;" d="M58.4,58.4c-6.1,0-12.2,0-18.3,0v3.7h3.7c0.8,0,1.6,0,2.4,0
			c4.1,0,8.1,0,12.2,0v7.3h3.7c0-3.7,0-7.3,0-11H58.4z"/>
		<path style="fill-rule:evenodd;clip-rule:evenodd;fill:#000000;" d="M47.5,69.4L47.5,69.4l-3.7,0v0c-6.1,0-12.2,0-18.3,0V73
			c11,0,21.9,0,32.9,0v-3.7C54.8,69.4,51.1,69.4,47.5,69.4z"/>
	</g>
</g>
</svg>
