<?xml version="1.0" encoding="utf-8"?>
<!-- Generator: Adobe Illustrator 24.2.0, SVG Export Plug-In . SVG Version: 6.00 Build 0)  -->
<svg version="1.1" xmlns="http://www.w3.org/2000/svg" xmlns:xlink="http://www.w3.org/1999/xlink" x="0px" y="0px"
	 viewBox="0 0 84.4 76.3" style="enable-background:new 0 0 84.4 76.3;" xml:space="preserve">
<g id="레이어_1">
	<g>
		<g>
			<rect x="17.3" y="23.2" style="fill:#00000;" width="6" height="6"/>
			<rect x="17.3" y="34.8" style="fill:#00000;" width="6" height="6"/>
			<rect y="28.9" style="fill:#00000;" width="6" height="6"/>
			<rect x="5.7" y="23.2" style="fill:#00000;" width="6" height="6"/>
			<rect x="0.1" y="28.9" style="fill:#00000;" width="28.9" height="6"/>
			<rect x="11.3" y="11.7" style="fill:#00000;" width="6" height="30.7"/>
			<rect x="5.7" y="34.8" style="fill:#00000;" width="6" height="6"/>
			<polyline style="fill:#00000;" points="17.3,51.6 17.3,40.4 11.3,40.4 11.3,51.6 			"/>
		</g>
		<g>
			<rect x="33" y="53.6" style="fill:#00000;" width="6" height="6"/>
			<rect x="38.7" y="48" style="fill:#00000;" width="6" height="6"/>
			<rect x="33.1" y="53.6" style="fill:#00000;" width="28.9" height="6"/>
			<rect x="50.3" y="48" style="fill:#00000;" width="6" height="6"/>
			<rect x="44.3" y="36.4" style="fill:#00000;" width="6" height="30.7"/>
			<rect x="38.7" y="59.5" style="fill:#00000;" width="6" height="6"/>
			<rect x="50.3" y="59.5" style="fill:#00000;" width="6" height="6"/>
			<polyline style="fill:#00000;" points="50.3,76.3 50.3,65.2 44.3,65.2 44.3,76.3 			"/>
		</g>
		<g>
			<rect x="55.5" y="17.2" style="fill:#00000;" width="6" height="6"/>
			<rect x="61.2" y="11.6" style="fill:#00000;" width="6" height="6"/>
			<rect x="55.6" y="17.2" style="fill:#00000;" width="28.9" height="6"/>
			<rect x="72.8" y="11.6" style="fill:#00000;" width="6" height="6"/>
			<rect x="66.8" style="fill:#00000;" width="6" height="30.7"/>
			<rect x="61.2" y="23.1" style="fill:#00000;" width="6" height="6"/>
			<rect x="72.8" y="23.1" style="fill:#00000;" width="6" height="6"/>
			<polyline style="fill:#00000;" points="72.8,39.9 72.8,28.8 66.8,28.8 66.8,39.9 			"/>
		</g>
	</g>
</g>
</svg>
